<svg width="14" height="18" viewBox="0 0 14 18" fill="none" xmlns="http://www.w3.org/2000/svg">
<path d="M1.75702 12.9322H12.2429V7.71249C12.2429 4.80416 9.89555 2.44633 6.99995 2.44633C4.10435 2.44633 1.75702 4.80416 1.75702 7.71249L1.75702 12.9322ZM6.99995 0.948349C10.7224 0.948349 13.7409 3.97652 13.7409 7.71249V14.4302H0.259033L0.259033 7.71249C0.259033 3.97652 3.27747 0.948349 6.99995 0.948349ZM5.12748 15.1792H8.87243C8.87243 15.6758 8.67515 16.1521 8.324 16.5032C7.97284 16.8544 7.49657 17.0517 6.99995 17.0517C6.50334 17.0517 6.02707 16.8544 5.67591 16.5032C5.32475 16.1521 5.12748 15.6758 5.12748 15.1792Z" fill="white"/>
</svg>
