<svg xmlns="http://www.w3.org/2000/svg">
  

<symbol id="icon-label"  viewBox="0 0 30 36" fill="none" xmlns="http://www.w3.org/2000/svg">
<path d="M0 0.5L2.72969 32.0008L14.982 35.5L27.2656 31.9961L30 0.5H0ZM24.0625 10.8125H9.6875L10 14.7969H23.75L22.6945 26.6242L15 28.8188L7.29063 26.6313L6.76094 20.5781H10.5312L10.7984 23.6477L15 24.8023L19.1734 23.6367L19.6094 18.625H6.5625L5.57891 6.93828H24.3906L24.0625 10.8125Z" fill="currentColor"/>
</symbol>

<symbol  id="icon-search" viewBox="0 0 17 17" fill="none" xmlns="http://www.w3.org/2000/svg">
<path fill-rule="evenodd" clip-rule="evenodd" d="M11 6.5C11 8.9853 8.9853 11 6.5 11C4.01472 11 2 8.9853 2 6.5C2 4.01472 4.01472 2 6.5 2C8.9853 2 11 4.01472 11 6.5ZM10.1793 11.2399C9.1632 12.0297 7.8865 12.5 6.5 12.5C3.18629 12.5 0.5 9.8137 0.5 6.5C0.5 3.18629 3.18629 0.5 6.5 0.5C9.8137 0.5 12.5 3.18629 12.5 6.5C12.5 7.8865 12.0297 9.1632 11.2399 10.1792L16.0304 14.9697L14.9697 16.0303L10.1793 11.2399Z" fill="white"/>
</symbol>
<symbol id="icon-message" viewBox="0 0 14 18" fill="none" xmlns="http://www.w3.org/2000/svg">
<path d="M1.75702 12.9322H12.2429V7.71249C12.2429 4.80416 9.89555 2.44633 6.99995 2.44633C4.10435 2.44633 1.75702 4.80416 1.75702 7.71249L1.75702 12.9322ZM6.99995 0.948349C10.7224 0.948349 13.7409 3.97652 13.7409 7.71249V14.4302H0.259033L0.259033 7.71249C0.259033 3.97652 3.27747 0.948349 6.99995 0.948349ZM5.12748 15.1792H8.87243C8.87243 15.6758 8.67515 16.1521 8.324 16.5032C7.97284 16.8544 7.49657 17.0517 6.99995 17.0517C6.50334 17.0517 6.02707 16.8544 5.67591 16.5032C5.32475 16.1521 5.12748 15.6758 5.12748 15.1792Z" fill="currentColor"/>
</symbol>

<symbol id="icon-arrow"  viewBox="0 0 32 15" fill="none" xmlns="http://www.w3.org/2000/svg">
<path fill-rule="evenodd" clip-rule="evenodd" d="M31.7143 7.52204L25.4287 14.0625L24.5338 13.1845L29.3715 8.15062L0.285713 8.15062V6.8903L29.3789 6.8903L24.5338 1.81221L25.4319 0.9375L31.7143 7.52204Z" fill="#F26E36"/>
</symbol>
<symbol id="button-prev" viewBox="0 0 50 22" fill="none" xmlns="http://www.w3.org/2000/svg">
<path fill-rule="evenodd" clip-rule="evenodd" d="M0 10.9647L9.99982 0.5L11.4235 1.90476L3.72711 9.95901L50 9.95901V11.9755L3.71535 11.9755L11.4235 20.1005L9.99476 21.5L0 10.9647Z" fill="#222222"/>
</symbol>

<symbol id="button-next" viewBox="0 0 50 22" fill="none" xmlns="http://www.w3.org/2000/svg">
<path fill-rule="evenodd" clip-rule="evenodd" d="M50 11.0353L40.0002 21.5L38.5765 20.0952L46.2729 12.041L0 12.041V10.0245L46.2846 10.0245L38.5765 1.89953L40.0052 0.5L50 11.0353Z" fill="#222222"/>
</symbol>

<symbol id="icon-star" viewBox="0 0 20 20" fill="none" xmlns="http://www.w3.org/2000/svg">
<path d="M7.15316 3.40838C8.4198 1.13613 9.0531 0 10 0C10.9469 0 11.5802 1.13612 12.8468 3.40837L13.1745 3.99623C13.5345 4.64193 13.7144 4.96479 13.9951 5.17781C14.2757 5.39083 14.6251 5.4699 15.3241 5.62805L15.9605 5.77203C18.4201 6.32856 19.65 6.60682 19.9426 7.54773C20.2352 8.4886 19.3968 9.4691 17.7199 11.4299L17.2861 11.9372C16.8096 12.4944 16.5713 12.773 16.4641 13.1177C16.357 13.4624 16.393 13.8341 16.465 14.5776L16.5306 15.2544C16.7841 17.8706 16.9109 19.1787 16.1449 19.7602C15.3788 20.3417 14.2273 19.8115 11.9243 18.7512L11.3285 18.4768C10.6741 18.1755 10.3469 18.0248 10 18.0248C9.6531 18.0248 9.3259 18.1755 8.6715 18.4768L8.0757 18.7512C5.77268 19.8115 4.62118 20.3417 3.85515 19.7602C3.08912 19.1787 3.21588 17.8706 3.4694 15.2544L3.53498 14.5776C3.60703 13.8341 3.64305 13.4624 3.53586 13.1177C3.42868 12.773 3.19043 12.4944 2.71392 11.9372L2.2801 11.4299C0.603252 9.4691 -0.235178 8.4886 0.0574219 7.54773C0.350022 6.60682 1.57986 6.32856 4.03954 5.77203L4.67589 5.62805C5.37485 5.4699 5.72433 5.39083 6.00494 5.17781C6.28555 4.96479 6.46553 4.64194 6.82547 3.99623L7.15316 3.40838Z" fill="currentColor"/>
</symbol>

</svg>

